<?xml version="1.0" standalone="no"?>
<!DOCTYPE svg PUBLIC "-//W3C//DTD SVG 20010904//EN"
 "http://www.w3.org/TR/2001/REC-SVG-20010904/DTD/svg10.dtd">
<svg version="1.0" xmlns="http://www.w3.org/2000/svg"
 width="3102.000000pt" height="3102.000000pt" viewBox="0 0 3102.000000 3102.000000"
 preserveAspectRatio="xMidYMid meet">
<metadata>
Created by potrace 1.11, written by Peter Selinger 2001-2013
</metadata>
<g transform="translate(0.000000,3102.000000) scale(0.100000,-0.100000)"
fill="#000000" stroke="none">
<path d="M1830 27548 c-7 -18 -19 -46 -26 -63 -7 -16 -47 -115 -89 -220 -42
-104 -83 -203 -90 -220 -7 -16 -34 -82 -60 -145 -26 -63 -53 -128 -60 -145 -7
-16 -29 -70 -49 -120 -51 -129 -112 -274 -117 -279 -2 -2 -42 -7 -89 -10 -127
-10 -306 -24 -390 -31 -25 -2 -81 -7 -125 -10 -44 -3 -102 -7 -130 -10 -27 -3
-86 -7 -130 -10 -44 -3 -102 -8 -130 -10 -167 -13 -223 -18 -245 -20 -14 -2
-43 -4 -65 -4 l-40 -1 35 -28 c19 -15 71 -58 115 -96 44 -37 91 -78 105 -90
14 -11 84 -70 155 -131 72 -60 164 -138 205 -174 86 -74 83 -71 255 -215 72
-60 136 -114 142 -120 13 -12 3 -62 -92 -451 -95 -394 -125 -518 -129 -538 -2
-12 -21 -89 -41 -171 -20 -81 -35 -150 -33 -151 2 -2 71 39 153 90 83 52 179
111 215 133 36 21 222 136 414 255 l350 217 28 -18 c15 -9 116 -71 223 -137
108 -66 208 -128 223 -137 15 -10 38 -24 52 -32 14 -8 157 -96 319 -195 162
-99 296 -180 297 -178 2 2 -3 24 -11 49 -7 26 -16 59 -18 75 -3 15 -12 57 -22
93 -9 36 -18 72 -20 80 -3 15 -58 241 -130 534 -20 82 -38 156 -40 165 -31
131 -68 277 -71 283 -7 11 -42 -20 419 372 27 23 59 50 71 61 34 29 74 64 141
120 32 28 66 57 75 65 9 8 36 31 61 52 24 20 55 46 69 58 14 12 60 52 103 88
42 36 76 66 75 68 -3 2 -79 8 -228 19 -121 9 -208 16 -265 20 -33 3 -91 8
-130 10 -38 3 -97 7 -130 10 -33 2 -96 7 -140 10 -44 3 -100 7 -125 10 -25 2
-90 7 -145 11 -87 6 -128 9 -158 13 -4 1 -12 13 -18 29 -10 26 -68 166 -94
227 -7 17 -39 93 -70 170 -31 77 -66 159 -76 182 -10 24 -19 45 -19 48 0 3 -9
27 -21 53 -32 72 -33 74 -125 297 -47 116 -89 214 -94 218 -4 4 -13 -7 -20
-25z"/>
<path d="M15889 27245 c-2 -2 -65 -6 -141 -10 -75 -3 -154 -8 -175 -10 -21 -2
-81 -6 -133 -9 -52 -4 -111 -9 -130 -11 -19 -3 -57 -7 -85 -10 -108 -9 -181
-16 -205 -20 -14 -2 -47 -6 -75 -10 -114 -13 -171 -21 -235 -30 -172 -27 -300
-47 -320 -51 -14 -3 -34 -6 -45 -8 -39 -7 -91 -17 -165 -31 -41 -8 -87 -17
-102 -20 -16 -3 -40 -7 -55 -10 -213 -42 -705 -168 -993 -255 -136 -41 -478
-154 -515 -170 -11 -5 -70 -27 -131 -49 -162 -58 -344 -131 -394 -156 -14 -7
-27 -13 -30 -13 -9 -1 -53 -19 -180 -75 -325 -142 -703 -331 -1017 -509 -18
-10 -50 -28 -70 -39 -201 -113 -743 -458 -868 -552 -23 -17 -53 -39 -65 -47
-24 -16 -248 -180 -300 -220 -19 -14 -89 -70 -158 -125 -68 -55 -137 -109
-152 -120 -23 -17 -146 -121 -160 -135 -3 -3 -34 -30 -70 -60 -36 -30 -70 -59
-76 -65 -6 -5 -49 -44 -95 -85 -144 -128 -217 -198 -434 -415 -249 -249 -364
-371 -545 -580 -52 -61 -97 -112 -100 -115 -3 -3 -50 -59 -103 -125 -54 -66
-104 -127 -111 -136 -43 -53 -297 -386 -324 -425 -7 -11 -40 -57 -73 -104
-148 -207 -409 -612 -525 -813 -21 -38 -47 -83 -58 -100 -92 -156 -376 -704
-446 -862 -13 -27 -36 -78 -52 -113 -39 -86 -168 -392 -168 -398 0 -4 -7 -20
-15 -37 -56 -124 -298 -801 -311 -873 -1 -6 -15 -56 -32 -110 -17 -54 -45
-151 -62 -214 -17 -63 -35 -131 -41 -150 -30 -106 -134 -559 -144 -629 -3 -23
-11 -55 -16 -70 -6 -14 -10 -28 -9 -31 2 -5 -9 -77 -16 -113 -5 -27 -34 -191
-40 -232 -2 -16 -6 -41 -9 -55 -2 -14 -7 -45 -10 -70 -3 -25 -8 -52 -10 -60
-2 -8 -6 -40 -10 -71 -3 -31 -7 -65 -9 -75 -3 -17 -8 -57 -22 -184 -3 -25 -7
-61 -9 -80 -5 -44 -17 -165 -20 -205 -1 -16 -6 -73 -10 -125 -4 -52 -8 -115
-10 -140 -26 -320 -26 -1280 -1 -1485 2 -16 7 -75 11 -130 3 -55 8 -116 10
-135 2 -19 7 -66 10 -105 3 -38 8 -81 10 -95 2 -14 6 -54 10 -90 4 -36 8 -76
10 -90 2 -14 6 -47 9 -75 4 -27 8 -61 11 -75 3 -22 10 -71 31 -220 5 -39 41
-250 49 -290 3 -14 9 -50 15 -80 15 -84 19 -100 24 -118 3 -9 8 -35 12 -57 22
-141 137 -604 229 -919 71 -243 251 -774 295 -871 5 -11 39 -93 75 -183 36
-90 73 -182 84 -205 10 -23 34 -78 54 -122 95 -218 262 -558 377 -770 68 -126
237 -422 270 -475 5 -8 48 -78 96 -155 155 -251 379 -580 546 -800 92 -121
292 -377 313 -399 6 -6 44 -51 85 -101 41 -49 77 -92 80 -95 3 -3 20 -23 39
-45 37 -44 156 -177 241 -270 92 -101 569 -575 674 -670 54 -50 104 -95 110
-100 18 -18 299 -257 342 -292 21 -18 71 -58 109 -89 39 -31 82 -66 97 -77
159 -129 564 -421 744 -537 400 -259 619 -388 964 -572 151 -81 572 -288 585
-288 2 0 45 -19 97 -43 51 -24 156 -70 233 -101 77 -32 160 -67 184 -78 25
-11 52 -21 60 -23 9 -2 80 -29 159 -59 225 -86 579 -204 797 -265 61 -17 124
-35 140 -40 31 -10 251 -69 285 -77 11 -2 28 -6 38 -8 36 -9 288 -68 307 -72
11 -2 31 -6 45 -9 14 -4 36 -8 50 -11 14 -3 59 -12 100 -20 41 -9 85 -18 98
-20 12 -2 49 -9 82 -14 98 -18 109 -20 138 -25 15 -3 47 -7 72 -11 25 -3 53
-8 64 -11 10 -3 35 -7 55 -9 20 -1 47 -5 60 -8 13 -3 49 -8 80 -11 31 -3 67
-8 81 -10 35 -7 87 -14 145 -20 28 -3 69 -8 93 -10 94 -11 130 -15 192 -20
144 -13 167 -14 410 -30 342 -22 1087 -22 1310 0 19 1 82 6 140 9 58 4 123 8
145 11 48 5 163 16 225 21 45 4 107 11 165 18 17 3 58 7 92 11 34 3 72 8 85
10 13 3 43 7 68 10 66 8 297 44 355 55 28 5 64 12 80 14 62 10 101 17 140 26
22 5 54 11 70 14 55 10 230 46 265 56 19 5 46 11 60 14 14 2 54 12 90 21 36 9
76 18 90 21 14 3 58 14 98 25 40 11 83 22 94 24 85 17 520 149 767 233 l164
56 -28 21 c-281 204 -517 471 -691 782 -35 63 -64 116 -64 118 0 2 -13 32 -29
67 -25 55 -63 156 -91 238 -79 236 -118 504 -114 790 1 80 4 163 8 185 3 22 9
60 11 85 9 75 54 289 76 359 150 479 412 871 785 1178 281 229 633 403 966
478 65 14 126 26 155 30 18 2 48 7 65 10 69 12 118 16 288 19 96 2 209 0 250
-5 132 -13 160 -18 350 -55 53 -10 220 -64 320 -102 148 -57 339 -157 460
-241 36 -24 79 -54 95 -65 17 -12 32 -23 35 -26 3 -3 34 -29 70 -59 78 -66
249 -236 310 -310 148 -177 283 -403 374 -623 31 -76 91 -251 101 -295 34
-155 55 -263 55 -286 0 -16 4 -27 10 -25 17 6 212 190 410 388 228 228 438
451 562 600 12 14 45 52 73 85 29 33 96 114 149 180 126 156 114 140 171 215
28 36 52 67 55 70 9 8 163 219 238 325 39 55 75 105 79 110 43 55 312 474 404
628 18 32 39 66 44 75 18 31 152 266 189 332 49 90 273 535 323 645 23 50 55
119 71 155 17 36 46 106 66 155 20 50 43 104 51 120 47 96 201 511 291 785 63
188 161 518 171 569 2 13 6 28 9 32 4 8 50 178 58 219 2 14 18 81 35 150 26
110 101 464 114 545 6 35 63 393 71 445 3 19 10 73 16 120 6 47 13 101 15 120
3 19 7 60 10 90 3 30 7 66 10 80 3 24 11 105 20 215 21 273 20 256 30 490 14
308 9 951 -10 1175 -2 25 -6 90 -10 145 -3 55 -8 118 -10 140 -3 22 -9 90 -15
150 -6 61 -12 124 -14 140 -2 17 -7 57 -11 90 -9 79 -19 156 -30 235 -30 202
-39 263 -51 330 -4 19 -8 44 -9 55 -2 11 -6 34 -9 50 -3 17 -10 55 -16 85 -22
117 -65 325 -90 431 -6 26 -13 53 -14 60 -2 8 -6 25 -9 39 -4 14 -18 72 -33
130 -33 135 -26 111 -77 295 -62 221 -198 655 -227 720 -5 11 -20 52 -34 90
-43 122 -76 209 -85 230 -5 11 -37 90 -71 175 -34 85 -80 196 -102 245 -22 50
-47 106 -55 125 -78 178 -317 658 -382 769 -17 28 -31 54 -31 56 0 6 -141 251
-207 360 -138 228 -245 396 -337 529 l-75 109 -11 -29 c-112 -305 -304 -605
-539 -842 -128 -130 -139 -139 -261 -233 -203 -155 -447 -284 -697 -368 -71
-24 -283 -77 -338 -85 -22 -3 -49 -7 -61 -10 -136 -28 -500 -28 -704 0 -161
23 -463 104 -545 148 -11 5 -25 11 -32 12 -36 6 -285 140 -389 210 -218 145
-402 312 -556 505 -63 79 -198 272 -198 284 0 2 -18 34 -40 72 -105 182 -215
496 -250 713 -7 41 -14 84 -17 95 -28 136 -24 516 7 710 16 98 20 116 46 219
171 682 649 1265 1288 1570 61 30 121 57 134 60 12 4 22 10 22 14 0 4 -35 29
-78 56 -113 73 -501 306 -507 306 -3 0 -22 10 -43 23 -20 13 -77 45 -127 72
-49 26 -114 61 -143 77 -67 37 -364 185 -457 228 -189 88 -337 154 -405 181
-41 17 -88 37 -105 44 -55 25 -308 124 -450 175 -157 58 -456 156 -636 210
-150 45 -520 145 -574 155 -11 2 -60 13 -110 25 -114 27 -88 22 -320 69 -110
22 -227 44 -260 50 -119 20 -130 22 -155 26 -14 2 -54 8 -90 14 -36 5 -83 13
-105 16 -23 3 -50 7 -60 9 -11 2 -47 7 -80 10 -33 4 -73 9 -90 12 -29 3 -75 9
-172 19 -27 3 -66 7 -88 10 -93 10 -208 19 -375 30 -52 4 -117 9 -145 11 -59
6 -1071 14 -1076 9z m956 -6760 c132 -3 265 -8 295 -10 137 -9 237 -17 265
-19 17 -2 64 -6 105 -10 190 -18 213 -21 403 -46 45 -6 96 -13 112 -16 17 -3
46 -7 65 -10 19 -2 58 -8 85 -14 28 -5 61 -11 75 -14 73 -12 210 -37 245 -46
22 -5 83 -18 135 -30 554 -122 1016 -295 1315 -494 160 -106 312 -259 383
-386 73 -130 102 -300 81 -475 -15 -123 -20 -148 -44 -240 -97 -369 -233 -588
-408 -653 -69 -26 -115 -33 -212 -32 -98 0 -153 7 -300 36 -63 13 -306 69
-385 89 -213 55 -476 109 -600 122 -129 14 -317 9 -419 -12 -127 -25 -301
-118 -404 -214 -229 -215 -262 -457 -94 -676 63 -82 229 -223 327 -276 14 -8
27 -17 30 -20 5 -5 182 -108 265 -154 22 -12 60 -33 85 -47 25 -14 119 -66
210 -116 91 -49 194 -106 228 -126 35 -20 66 -36 68 -36 2 0 21 -11 42 -23 35
-23 80 -49 183 -106 441 -246 944 -582 1212 -809 74 -63 279 -277 331 -346
159 -211 278 -462 320 -676 33 -167 33 -166 43 -280 12 -139 6 -418 -11 -505
-2 -11 -9 -54 -16 -95 -17 -106 -16 -105 -43 -210 -25 -99 -78 -259 -104 -320
-8 -19 -22 -51 -31 -70 -175 -404 -479 -747 -872 -985 -219 -134 -505 -264
-796 -365 -248 -86 -789 -240 -929 -263 -16 -3 -52 -10 -80 -17 -27 -6 -59
-13 -70 -16 -11 -2 -31 -6 -45 -9 -14 -3 -43 -8 -65 -11 -22 -3 -43 -8 -46
-10 -5 -3 -87 -18 -164 -29 -11 -2 -76 -12 -145 -23 -69 -11 -147 -23 -175
-27 -52 -6 -89 -11 -151 -20 -20 -3 -68 -8 -108 -11 -39 -3 -82 -7 -96 -9 -14
-3 -68 -7 -120 -11 -52 -3 -108 -7 -125 -9 -73 -9 -389 -19 -600 -19 -347 0
-722 18 -1025 50 -36 4 -78 8 -95 9 -16 1 -71 8 -121 14 -50 7 -104 14 -120
15 -16 2 -51 6 -79 10 -27 4 -66 9 -85 12 -19 2 -48 6 -65 9 -16 3 -43 7 -60
9 -16 2 -86 13 -155 25 -173 29 -190 32 -280 51 -30 7 -64 13 -75 15 -63 10
-299 67 -530 130 -179 48 -497 165 -680 250 -145 67 -412 225 -466 277 -8 7
-30 25 -49 39 -51 38 -172 164 -225 234 -90 118 -165 304 -183 450 -9 79 -8
303 1 384 18 150 63 325 118 459 95 233 214 365 380 423 52 18 87 22 184 23
66 0 138 -3 160 -7 22 -4 56 -9 75 -12 53 -9 334 -82 425 -111 44 -14 87 -27
95 -29 8 -2 76 -22 150 -44 74 -23 144 -44 156 -46 11 -3 47 -13 80 -24 119
-38 456 -120 564 -138 171 -27 219 -31 335 -28 171 4 229 17 340 72 57 30 144
115 168 166 32 67 42 179 23 262 -10 48 -51 151 -77 199 -16 28 -35 63 -41 79
-7 15 -16 27 -20 27 -4 0 -8 5 -8 11 0 18 -112 149 -191 224 -74 70 -213 177
-321 248 -32 20 -81 53 -110 72 -29 19 -103 65 -165 102 -843 510 -1092 700
-1427 1093 -12 14 -37 47 -56 75 -19 27 -40 55 -46 62 -11 11 -94 142 -142
223 -24 41 -101 195 -131 261 -97 218 -167 469 -198 704 -10 78 -10 391 0 475
61 495 287 963 636 1310 150 150 347 301 516 397 672 381 1585 616 2632 678
32 2 159 7 283 10 124 4 226 8 227 9 2 2 166 -1 428 -9z m-8785 -926 c129 -18
147 -21 257 -49 366 -95 719 -317 949 -600 16 -19 37 -44 47 -55 63 -69 195
-297 250 -430 34 -82 82 -228 91 -275 3 -14 10 -50 16 -80 16 -82 18 -98 26
-175 59 -618 -195 -1227 -675 -1619 -263 -215 -630 -372 -944 -404 -92 -9
-362 -9 -447 0 -277 31 -550 129 -790 285 -435 282 -742 748 -820 1243 -6 41
-14 86 -17 100 -18 93 -5 437 22 565 4 17 9 41 11 55 19 96 75 260 131 380 17
36 34 72 37 80 3 8 32 56 63 107 255 406 645 697 1103 821 195 54 503 76 690
51z"/>
<path d="M5677 26394 c-1 -1 -22 -4 -47 -7 -242 -29 -474 -174 -615 -387 -28
-41 -50 -77 -50 -80 -1 -3 -6 -14 -12 -25 -19 -36 -60 -159 -68 -205 -4 -25
-9 -54 -11 -65 -6 -28 -5 -205 1 -235 3 -14 7 -37 10 -51 10 -52 48 -165 73
-214 156 -310 472 -499 814 -489 388 11 710 261 824 639 23 79 27 107 27 235
0 118 -4 160 -21 223 -66 240 -220 439 -432 554 -127 70 -254 103 -408 107
-45 2 -83 2 -85 0z"/>
<path d="M2349 21564 l-484 -484 480 -480 c264 -264 483 -480 487 -480 5 0
224 216 488 480 l480 480 -484 484 -483 484 -484 -484z"/>
<path d="M29558 10619 l-478 -479 484 -484 483 -484 484 484 484 484 -480 480
c-264 264 -484 480 -490 479 -5 0 -225 -216 -487 -480z"/>
<path d="M27227 8898 c-14 -35 -63 -153 -107 -263 -45 -110 -90 -219 -101
-242 -10 -24 -19 -45 -19 -47 0 -2 -8 -21 -17 -42 -9 -22 -17 -41 -18 -44 -1
-3 -6 -16 -12 -30 -6 -14 -21 -50 -32 -80 -12 -30 -26 -64 -31 -75 -5 -11 -30
-72 -56 -135 -65 -161 -87 -210 -93 -211 -7 -1 -26 -3 -156 -13 -49 -4 -108
-9 -130 -11 -22 -2 -80 -6 -130 -10 -49 -3 -106 -8 -125 -10 -51 -6 -199 -17
-390 -30 -41 -2 -97 -7 -125 -9 -27 -3 -88 -8 -135 -12 -79 -6 -113 -10 -133
-13 -5 0 17 -22 50 -48 32 -26 60 -50 63 -53 3 -3 34 -30 70 -60 36 -30 67
-57 70 -60 3 -3 46 -39 95 -80 50 -41 95 -80 101 -86 6 -5 31 -26 54 -45 23
-18 50 -41 59 -49 14 -14 100 -87 170 -145 13 -11 29 -25 35 -30 6 -6 56 -48
111 -94 144 -120 136 -107 115 -188 -15 -57 -104 -425 -115 -473 -2 -8 -8 -35
-14 -60 -7 -25 -14 -56 -17 -70 -5 -24 -81 -337 -125 -518 -11 -45 -19 -87
-17 -92 3 -10 105 52 727 437 123 76 235 145 250 153 14 9 52 32 84 53 66 42
70 43 105 20 15 -10 36 -23 47 -30 51 -31 121 -75 135 -83 64 -41 291 -180
315 -194 17 -9 42 -24 57 -34 52 -33 222 -137 262 -160 23 -13 57 -34 76 -47
86 -56 151 -95 160 -95 6 0 10 -4 10 -9 0 -10 30 -24 37 -17 4 4 -15 88 -78
342 -16 66 -31 129 -34 140 -2 10 -20 84 -40 164 -20 80 -38 154 -40 165 -3
11 -12 49 -21 84 -9 36 -17 72 -19 80 -2 9 -11 45 -20 81 -9 36 -18 72 -20 80
-2 8 -11 46 -20 83 l-16 68 28 23 c15 13 39 34 53 46 14 11 34 29 45 38 55 46
153 130 180 153 31 28 365 313 588 502 70 60 127 109 127 111 0 1 -10 2 -22 2
-13 0 -68 3 -123 7 -127 11 -193 16 -275 21 -36 3 -94 7 -130 10 -36 3 -101 8
-145 11 -44 3 -105 8 -135 10 -30 2 -91 7 -135 10 -44 3 -100 8 -125 10 -25 2
-88 6 -140 10 -73 5 -97 11 -105 23 -10 18 -22 46 -165 392 -214 518 -342 825
-344 828 -2 1 -15 -26 -29 -60z"/>
<path d="M29945 4920 c-161 -22 -333 -111 -444 -229 -51 -55 -127 -175 -151
-237 -123 -330 -20 -682 258 -881 37 -27 85 -57 107 -67 22 -10 47 -23 57 -27
21 -10 131 -39 172 -45 123 -17 349 15 404 59 6 5 12 7 12 3 0 -15 148 86 206
141 222 211 290 539 173 826 -65 161 -194 301 -354 384 -116 61 -302 91 -440
73z"/>
</g>
</svg>
